<mxfile host="app.diagrams.net" modified="2021-01-19T17:50:22.099Z" agent="5.0 (Windows NT 10.0; Win64; x64) AppleWebKit/537.36 (KHTML, like Gecko) Chrome/87.0.4280.141 Safari/537.36" etag="ob43OjkW-EF2G_w0Iarc" version="14.2.4" type="github" pages="2">
  <diagram id="AfY26NeNKKnpfJGDGDFY" name="Page-1">
    <mxGraphModel dx="2131" dy="529" grid="1" gridSize="10" guides="1" tooltips="1" connect="1" arrows="1" fold="1" page="1" pageScale="1" pageWidth="827" pageHeight="1169" math="0" shadow="0">
      <root>
        <mxCell id="0" />
        <mxCell id="1" parent="0" />
        <mxCell id="9K69wm-9-MHkOMZKR88a-1" value="NormalUser" style="swimlane;fontStyle=1;childLayout=stackLayout;horizontal=1;startSize=26;horizontalStack=0;resizeParent=1;resizeParentMax=0;resizeLast=0;collapsible=1;marginBottom=0;fontSize=16;" parent="1" vertex="1">
          <mxGeometry x="-509" y="350" width="300" height="366" as="geometry" />
        </mxCell>
        <mxCell id="9K69wm-9-MHkOMZKR88a-2" value="- username: String" style="text;align=left;verticalAlign=top;spacingLeft=4;spacingRight=4;overflow=hidden;rotatable=0;points=[[0,0.5],[1,0.5]];portConstraint=eastwest;" parent="9K69wm-9-MHkOMZKR88a-1" vertex="1">
          <mxGeometry y="26" width="300" height="26" as="geometry" />
        </mxCell>
        <mxCell id="9K69wm-9-MHkOMZKR88a-3" value="- password: String" style="text;strokeColor=none;fillColor=none;align=left;verticalAlign=top;spacingLeft=4;spacingRight=4;overflow=hidden;rotatable=0;points=[[0,0.5],[1,0.5]];portConstraint=eastwest;" parent="9K69wm-9-MHkOMZKR88a-1" vertex="1">
          <mxGeometry y="52" width="300" height="26" as="geometry" />
        </mxCell>
        <mxCell id="9K69wm-9-MHkOMZKR88a-6" value="- name: String&#xa;" style="text;strokeColor=none;fillColor=none;align=left;verticalAlign=top;spacingLeft=4;spacingRight=4;overflow=hidden;rotatable=0;points=[[0,0.5],[1,0.5]];portConstraint=eastwest;" parent="9K69wm-9-MHkOMZKR88a-1" vertex="1">
          <mxGeometry y="78" width="300" height="32" as="geometry" />
        </mxCell>
        <mxCell id="9K69wm-9-MHkOMZKR88a-5" value="- surname: String&#xa;" style="text;strokeColor=none;fillColor=none;align=left;verticalAlign=top;spacingLeft=4;spacingRight=4;overflow=hidden;rotatable=0;points=[[0,0.5],[1,0.5]];portConstraint=eastwest;" parent="9K69wm-9-MHkOMZKR88a-1" vertex="1">
          <mxGeometry y="110" width="300" height="32" as="geometry" />
        </mxCell>
        <mxCell id="9K69wm-9-MHkOMZKR88a-20" value="- DateOfBirth: Date&#xa;" style="text;strokeColor=none;fillColor=none;align=left;verticalAlign=top;spacingLeft=4;spacingRight=4;overflow=hidden;rotatable=0;points=[[0,0.5],[1,0.5]];portConstraint=eastwest;" parent="9K69wm-9-MHkOMZKR88a-1" vertex="1">
          <mxGeometry y="142" width="300" height="32" as="geometry" />
        </mxCell>
        <mxCell id="9K69wm-9-MHkOMZKR88a-7" value="- gender: char&#xa;" style="text;strokeColor=none;fillColor=none;align=left;verticalAlign=top;spacingLeft=4;spacingRight=4;overflow=hidden;rotatable=0;points=[[0,0.5],[1,0.5]];portConstraint=eastwest;" parent="9K69wm-9-MHkOMZKR88a-1" vertex="1">
          <mxGeometry y="174" width="300" height="32" as="geometry" />
        </mxCell>
        <mxCell id="9K69wm-9-MHkOMZKR88a-8" value="- email: String&#xa;" style="text;strokeColor=none;fillColor=none;align=left;verticalAlign=top;spacingLeft=4;spacingRight=4;overflow=hidden;rotatable=0;points=[[0,0.5],[1,0.5]];portConstraint=eastwest;" parent="9K69wm-9-MHkOMZKR88a-1" vertex="1">
          <mxGeometry y="206" width="300" height="32" as="geometry" />
        </mxCell>
        <mxCell id="9K69wm-9-MHkOMZKR88a-9" value="- country: String&#xa;" style="text;strokeColor=none;fillColor=none;align=left;verticalAlign=top;spacingLeft=4;spacingRight=4;overflow=hidden;rotatable=0;points=[[0,0.5],[1,0.5]];portConstraint=eastwest;" parent="9K69wm-9-MHkOMZKR88a-1" vertex="1">
          <mxGeometry y="238" width="300" height="32" as="geometry" />
        </mxCell>
        <mxCell id="9K69wm-9-MHkOMZKR88a-10" value="- followedUsers: int&#xa;" style="text;strokeColor=none;fillColor=none;align=left;verticalAlign=top;spacingLeft=4;spacingRight=4;overflow=hidden;rotatable=0;points=[[0,0.5],[1,0.5]];portConstraint=eastwest;" parent="9K69wm-9-MHkOMZKR88a-1" vertex="1">
          <mxGeometry y="270" width="300" height="32" as="geometry" />
        </mxCell>
        <mxCell id="9K69wm-9-MHkOMZKR88a-11" value="- followedCompanies: int&#xa;" style="text;strokeColor=none;fillColor=none;align=left;verticalAlign=top;spacingLeft=4;spacingRight=4;overflow=hidden;rotatable=0;points=[[0,0.5],[1,0.5]];portConstraint=eastwest;" parent="9K69wm-9-MHkOMZKR88a-1" vertex="1">
          <mxGeometry y="302" width="300" height="32" as="geometry" />
        </mxCell>
        <mxCell id="9K69wm-9-MHkOMZKR88a-13" value="/*Possibile gestione dei campi followed con GDB*/" style="text;strokeColor=none;fillColor=none;align=left;verticalAlign=top;spacingLeft=4;spacingRight=4;overflow=hidden;rotatable=0;points=[[0,0.5],[1,0.5]];portConstraint=eastwest;" parent="9K69wm-9-MHkOMZKR88a-1" vertex="1">
          <mxGeometry y="334" width="300" height="32" as="geometry" />
        </mxCell>
        <mxCell id="9K69wm-9-MHkOMZKR88a-28" value="" style="endArrow=none;html=1;strokeColor=#000000;fontSize=16;rounded=0;edgeStyle=orthogonalEdgeStyle;exitX=0;exitY=0.5;exitDx=0;exitDy=0;entryX=0;entryY=0.5;entryDx=0;entryDy=0;" parent="9K69wm-9-MHkOMZKR88a-1" source="9K69wm-9-MHkOMZKR88a-9" target="9K69wm-9-MHkOMZKR88a-6" edge="1">
          <mxGeometry width="50" height="50" relative="1" as="geometry">
            <mxPoint x="-110" y="220" as="sourcePoint" />
            <mxPoint x="-60" y="170" as="targetPoint" />
            <Array as="points">
              <mxPoint x="-100" y="254" />
              <mxPoint x="-100" y="94" />
            </Array>
          </mxGeometry>
        </mxCell>
        <mxCell id="9K69wm-9-MHkOMZKR88a-16" value="ProfessionalUser" style="swimlane;fontStyle=1;childLayout=stackLayout;horizontal=1;startSize=26;fillColor=none;horizontalStack=0;resizeParent=1;resizeParentMax=0;resizeLast=0;collapsible=1;marginBottom=0;fontSize=16;" parent="1" vertex="1">
          <mxGeometry x="-420" y="980" width="220" height="168" as="geometry" />
        </mxCell>
        <mxCell id="9K69wm-9-MHkOMZKR88a-17" value="- Profession: String" style="text;strokeColor=none;fillColor=none;align=left;verticalAlign=top;spacingLeft=4;spacingRight=4;overflow=hidden;rotatable=0;points=[[0,0.5],[1,0.5]];portConstraint=eastwest;" parent="9K69wm-9-MHkOMZKR88a-16" vertex="1">
          <mxGeometry y="26" width="220" height="26" as="geometry" />
        </mxCell>
        <mxCell id="9K69wm-9-MHkOMZKR88a-18" value="- SpecializationSector: List&lt;String&gt;" style="text;strokeColor=none;fillColor=none;align=left;verticalAlign=top;spacingLeft=4;spacingRight=4;overflow=hidden;rotatable=0;points=[[0,0.5],[1,0.5]];portConstraint=eastwest;" parent="9K69wm-9-MHkOMZKR88a-16" vertex="1">
          <mxGeometry y="52" width="220" height="26" as="geometry" />
        </mxCell>
        <mxCell id="9K69wm-9-MHkOMZKR88a-19" value="- CurriculumVitae: Text(String)" style="text;strokeColor=none;fillColor=none;align=left;verticalAlign=top;spacingLeft=4;spacingRight=4;overflow=hidden;rotatable=0;points=[[0,0.5],[1,0.5]];portConstraint=eastwest;" parent="9K69wm-9-MHkOMZKR88a-16" vertex="1">
          <mxGeometry y="78" width="220" height="26" as="geometry" />
        </mxCell>
        <mxCell id="9K69wm-9-MHkOMZKR88a-22" value="- avarageRating: double&#xa;" style="text;strokeColor=none;fillColor=none;align=left;verticalAlign=top;spacingLeft=4;spacingRight=4;overflow=hidden;rotatable=0;points=[[0,0.5],[1,0.5]];portConstraint=eastwest;" parent="9K69wm-9-MHkOMZKR88a-16" vertex="1">
          <mxGeometry y="104" width="220" height="32" as="geometry" />
        </mxCell>
        <mxCell id="9K69wm-9-MHkOMZKR88a-21" value="/*ricontrollare i nomi degli attributi*/" style="text;strokeColor=none;fillColor=none;align=left;verticalAlign=top;spacingLeft=4;spacingRight=4;overflow=hidden;rotatable=0;points=[[0,0.5],[1,0.5]];portConstraint=eastwest;" parent="9K69wm-9-MHkOMZKR88a-16" vertex="1">
          <mxGeometry y="136" width="220" height="32" as="geometry" />
        </mxCell>
        <mxCell id="9K69wm-9-MHkOMZKR88a-15" value="" style="endArrow=block;endSize=16;endFill=0;html=1;fontSize=16;edgeStyle=orthogonalEdgeStyle;rounded=0;exitX=0.5;exitY=0;exitDx=0;exitDy=0;entryX=0.453;entryY=1.094;entryDx=0;entryDy=0;entryPerimeter=0;" parent="1" source="9K69wm-9-MHkOMZKR88a-16" target="9K69wm-9-MHkOMZKR88a-13" edge="1">
          <mxGeometry width="160" relative="1" as="geometry">
            <mxPoint x="-310" y="906" as="sourcePoint" />
            <mxPoint x="-148" y="970" as="targetPoint" />
            <Array as="points">
              <mxPoint x="-310" y="890" />
              <mxPoint x="-194" y="890" />
              <mxPoint x="-194" y="800" />
              <mxPoint x="-373" y="800" />
            </Array>
          </mxGeometry>
        </mxCell>
        <mxCell id="9K69wm-9-MHkOMZKR88a-23" value="Administrator" style="swimlane;fontStyle=1;childLayout=stackLayout;horizontal=1;startSize=26;fillColor=none;horizontalStack=0;resizeParent=1;resizeParentMax=0;resizeLast=0;collapsible=1;marginBottom=0;fontSize=16;" parent="1" vertex="1">
          <mxGeometry x="-150" y="940" width="190" height="30" as="geometry" />
        </mxCell>
        <mxCell id="9K69wm-9-MHkOMZKR88a-27" value="" style="endArrow=none;html=1;strokeColor=#000000;fontSize=16;edgeStyle=orthogonalEdgeStyle;rounded=0;exitX=0.5;exitY=0;exitDx=0;exitDy=0;" parent="1" source="9K69wm-9-MHkOMZKR88a-23" edge="1">
          <mxGeometry width="50" height="50" relative="1" as="geometry">
            <mxPoint x="-20" y="920" as="sourcePoint" />
            <mxPoint x="-200" y="890" as="targetPoint" />
            <Array as="points">
              <mxPoint x="-60" y="940" />
              <mxPoint x="-60" y="890" />
            </Array>
          </mxGeometry>
        </mxCell>
        <mxCell id="9K69wm-9-MHkOMZKR88a-29" value="follows" style="text;html=1;align=center;verticalAlign=middle;resizable=0;points=[];autosize=1;fontSize=16;" parent="1" vertex="1">
          <mxGeometry x="-669" y="530" width="60" height="20" as="geometry" />
        </mxCell>
        <mxCell id="9K69wm-9-MHkOMZKR88a-30" value="0..N" style="text;html=1;align=center;verticalAlign=middle;resizable=0;points=[];autosize=1;fontSize=16;" parent="1" vertex="1">
          <mxGeometry x="-559" y="610" width="40" height="20" as="geometry" />
        </mxCell>
        <mxCell id="9K69wm-9-MHkOMZKR88a-31" value="0..N" style="text;html=1;align=center;verticalAlign=middle;resizable=0;points=[];autosize=1;fontSize=16;" parent="1" vertex="1">
          <mxGeometry x="-559" y="420" width="40" height="20" as="geometry" />
        </mxCell>
        <mxCell id="9K69wm-9-MHkOMZKR88a-79" value="0..N" style="text;html=1;align=center;verticalAlign=middle;resizable=0;points=[];autosize=1;fontSize=16;" parent="1" vertex="1">
          <mxGeometry x="-190" y="540" width="40" height="20" as="geometry" />
        </mxCell>
        <mxCell id="9K69wm-9-MHkOMZKR88a-81" value="watchList" style="text;html=1;align=center;verticalAlign=middle;resizable=0;points=[];autosize=1;fontSize=16;" parent="1" vertex="1">
          <mxGeometry x="-50" y="540" width="80" height="20" as="geometry" />
        </mxCell>
        <mxCell id="9K69wm-9-MHkOMZKR88a-82" value="Rating" style="swimlane;fontStyle=1;childLayout=stackLayout;horizontal=1;startSize=26;fillColor=none;horizontalStack=0;resizeParent=1;resizeParentMax=0;resizeLast=0;collapsible=1;marginBottom=0;fontSize=16;" parent="1" vertex="1">
          <mxGeometry x="-740" y="880" width="140" height="52" as="geometry" />
        </mxCell>
        <mxCell id="9K69wm-9-MHkOMZKR88a-83" value="- vote: int" style="text;strokeColor=none;fillColor=none;align=left;verticalAlign=top;spacingLeft=4;spacingRight=4;overflow=hidden;rotatable=0;points=[[0,0.5],[1,0.5]];portConstraint=eastwest;" parent="9K69wm-9-MHkOMZKR88a-82" vertex="1">
          <mxGeometry y="26" width="140" height="26" as="geometry" />
        </mxCell>
        <mxCell id="9K69wm-9-MHkOMZKR88a-86" style="edgeStyle=orthogonalEdgeStyle;rounded=0;orthogonalLoop=1;jettySize=auto;html=1;exitX=0;exitY=0.5;exitDx=0;exitDy=0;entryX=0.5;entryY=0;entryDx=0;entryDy=0;endArrow=none;endFill=0;strokeColor=#000000;fontSize=16;" parent="1" source="9K69wm-9-MHkOMZKR88a-11" target="9K69wm-9-MHkOMZKR88a-82" edge="1">
          <mxGeometry relative="1" as="geometry" />
        </mxCell>
        <mxCell id="9K69wm-9-MHkOMZKR88a-87" style="edgeStyle=orthogonalEdgeStyle;rounded=0;orthogonalLoop=1;jettySize=auto;html=1;exitX=0;exitY=0.5;exitDx=0;exitDy=0;entryX=0.45;entryY=0.962;entryDx=0;entryDy=0;entryPerimeter=0;endArrow=none;endFill=0;strokeColor=#000000;fontSize=16;" parent="1" source="9K69wm-9-MHkOMZKR88a-19" target="9K69wm-9-MHkOMZKR88a-83" edge="1">
          <mxGeometry relative="1" as="geometry" />
        </mxCell>
        <mxCell id="9K69wm-9-MHkOMZKR88a-88" value="evaluates" style="text;html=1;align=center;verticalAlign=middle;resizable=0;points=[];autosize=1;fontSize=16;" parent="1" vertex="1">
          <mxGeometry x="-600" y="770" width="80" height="20" as="geometry" />
        </mxCell>
        <mxCell id="9K69wm-9-MHkOMZKR88a-89" value="rates" style="text;html=1;align=center;verticalAlign=middle;resizable=0;points=[];autosize=1;fontSize=16;" parent="1" vertex="1">
          <mxGeometry x="-575" y="1030" width="50" height="20" as="geometry" />
        </mxCell>
        <mxCell id="9K69wm-9-MHkOMZKR88a-90" value="0..N" style="text;html=1;align=center;verticalAlign=middle;resizable=0;points=[];autosize=1;fontSize=16;" parent="1" vertex="1">
          <mxGeometry x="-670" y="860" width="40" height="20" as="geometry" />
        </mxCell>
        <mxCell id="9K69wm-9-MHkOMZKR88a-91" value="1..1" style="text;html=1;align=center;verticalAlign=middle;resizable=0;points=[];autosize=1;fontSize=16;" parent="1" vertex="1">
          <mxGeometry x="-549" y="674" width="40" height="20" as="geometry" />
        </mxCell>
        <mxCell id="9K69wm-9-MHkOMZKR88a-92" value="0..N" style="text;html=1;align=center;verticalAlign=middle;resizable=0;points=[];autosize=1;fontSize=16;" parent="1" vertex="1">
          <mxGeometry x="-670" y="940" width="40" height="20" as="geometry" />
        </mxCell>
        <mxCell id="9K69wm-9-MHkOMZKR88a-93" value="1..1" style="text;html=1;align=center;verticalAlign=middle;resizable=0;points=[];autosize=1;fontSize=16;" parent="1" vertex="1">
          <mxGeometry x="-460" y="1030" width="40" height="20" as="geometry" />
        </mxCell>
        <mxCell id="9K69wm-9-MHkOMZKR88a-94" value="Report" style="swimlane;fontStyle=1;childLayout=stackLayout;horizontal=1;startSize=26;fillColor=none;horizontalStack=0;resizeParent=1;resizeParentMax=0;resizeLast=0;collapsible=1;marginBottom=0;fontSize=16;" parent="1" vertex="1">
          <mxGeometry x="110" y="1010.5" width="230" height="130" as="geometry" />
        </mxCell>
        <mxCell id="9K69wm-9-MHkOMZKR88a-95" value="- dateReport: Date" style="text;strokeColor=none;fillColor=none;align=left;verticalAlign=top;spacingLeft=4;spacingRight=4;overflow=hidden;rotatable=0;points=[[0,0.5],[1,0.5]];portConstraint=eastwest;" parent="9K69wm-9-MHkOMZKR88a-94" vertex="1">
          <mxGeometry y="26" width="230" height="26" as="geometry" />
        </mxCell>
        <mxCell id="9K69wm-9-MHkOMZKR88a-96" value="- typeReport: List&lt;String&gt;" style="text;strokeColor=none;fillColor=none;align=left;verticalAlign=top;spacingLeft=4;spacingRight=4;overflow=hidden;rotatable=0;points=[[0,0.5],[1,0.5]];portConstraint=eastwest;" parent="9K69wm-9-MHkOMZKR88a-94" vertex="1">
          <mxGeometry y="52" width="230" height="26" as="geometry" />
        </mxCell>
        <mxCell id="9K69wm-9-MHkOMZKR88a-97" value="-  analizedValues: Map&lt;String, Integer&gt;" style="text;strokeColor=none;fillColor=none;align=left;verticalAlign=top;spacingLeft=4;spacingRight=4;overflow=hidden;rotatable=0;points=[[0,0.5],[1,0.5]];portConstraint=eastwest;" parent="9K69wm-9-MHkOMZKR88a-94" vertex="1">
          <mxGeometry y="78" width="230" height="26" as="geometry" />
        </mxCell>
        <mxCell id="9K69wm-9-MHkOMZKR88a-100" value="- details: Text" style="text;strokeColor=none;fillColor=none;align=left;verticalAlign=top;spacingLeft=4;spacingRight=4;overflow=hidden;rotatable=0;points=[[0,0.5],[1,0.5]];portConstraint=eastwest;" parent="9K69wm-9-MHkOMZKR88a-94" vertex="1">
          <mxGeometry y="104" width="230" height="26" as="geometry" />
        </mxCell>
        <mxCell id="9K69wm-9-MHkOMZKR88a-102" value="associated" style="text;html=1;align=center;verticalAlign=middle;resizable=0;points=[];autosize=1;fontSize=16;" parent="1" vertex="1">
          <mxGeometry x="240" y="870" width="90" height="20" as="geometry" />
        </mxCell>
        <mxCell id="9K69wm-9-MHkOMZKR88a-103" value="writes" style="text;html=1;align=center;verticalAlign=middle;resizable=0;points=[];autosize=1;fontSize=16;" parent="1" vertex="1">
          <mxGeometry x="-70" y="1040" width="60" height="20" as="geometry" />
        </mxCell>
        <mxCell id="9K69wm-9-MHkOMZKR88a-104" value="0..N" style="text;html=1;align=center;verticalAlign=middle;resizable=0;points=[];autosize=1;fontSize=16;" parent="1" vertex="1">
          <mxGeometry x="-200" y="1040" width="40" height="20" as="geometry" />
        </mxCell>
        <mxCell id="9K69wm-9-MHkOMZKR88a-105" value="1..1" style="text;html=1;align=center;verticalAlign=middle;resizable=0;points=[];autosize=1;fontSize=16;" parent="1" vertex="1">
          <mxGeometry x="240" y="970" width="40" height="20" as="geometry" />
        </mxCell>
        <mxCell id="9K69wm-9-MHkOMZKR88a-107" value="1..1" style="text;html=1;align=center;verticalAlign=middle;resizable=0;points=[];autosize=1;fontSize=16;" parent="1" vertex="1">
          <mxGeometry x="230" y="780" width="40" height="20" as="geometry" />
        </mxCell>
        <mxCell id="XG7lN19OMJaf1REQP0Ma-2" value="Company" style="swimlane;fontStyle=1;childLayout=stackLayout;horizontal=1;startSize=26;horizontalStack=0;resizeParent=1;resizeParentMax=0;resizeLast=0;collapsible=1;marginBottom=0;fontSize=16;" vertex="1" parent="1">
          <mxGeometry x="125" y="432" width="200" height="338" as="geometry" />
        </mxCell>
        <mxCell id="XG7lN19OMJaf1REQP0Ma-3" value="- name: String" style="text;align=left;verticalAlign=top;spacingLeft=4;spacingRight=4;overflow=hidden;rotatable=0;points=[[0,0.5],[1,0.5]];portConstraint=eastwest;" vertex="1" parent="XG7lN19OMJaf1REQP0Ma-2">
          <mxGeometry y="26" width="200" height="26" as="geometry" />
        </mxCell>
        <mxCell id="XG7lN19OMJaf1REQP0Ma-4" value="- symbol: String" style="text;align=left;verticalAlign=top;spacingLeft=4;spacingRight=4;overflow=hidden;rotatable=0;points=[[0,0.5],[1,0.5]];portConstraint=eastwest;" vertex="1" parent="XG7lN19OMJaf1REQP0Ma-2">
          <mxGeometry y="52" width="200" height="26" as="geometry" />
        </mxCell>
        <mxCell id="XG7lN19OMJaf1REQP0Ma-5" value="- sector: String" style="text;align=left;verticalAlign=top;spacingLeft=4;spacingRight=4;overflow=hidden;rotatable=0;points=[[0,0.5],[1,0.5]];portConstraint=eastwest;" vertex="1" parent="XG7lN19OMJaf1REQP0Ma-2">
          <mxGeometry y="78" width="200" height="26" as="geometry" />
        </mxCell>
        <mxCell id="XG7lN19OMJaf1REQP0Ma-6" value="- stockExchange: String" style="text;align=left;verticalAlign=top;spacingLeft=4;spacingRight=4;overflow=hidden;rotatable=0;points=[[0,0.5],[1,0.5]];portConstraint=eastwest;" vertex="1" parent="XG7lN19OMJaf1REQP0Ma-2">
          <mxGeometry y="104" width="200" height="26" as="geometry" />
        </mxCell>
        <mxCell id="XG7lN19OMJaf1REQP0Ma-7" value="- website: String" style="text;align=left;verticalAlign=top;spacingLeft=4;spacingRight=4;overflow=hidden;rotatable=0;points=[[0,0.5],[1,0.5]];portConstraint=eastwest;" vertex="1" parent="XG7lN19OMJaf1REQP0Ma-2">
          <mxGeometry y="130" width="200" height="26" as="geometry" />
        </mxCell>
        <mxCell id="XG7lN19OMJaf1REQP0Ma-8" value="- fullTimesEmployees: int" style="text;align=left;verticalAlign=top;spacingLeft=4;spacingRight=4;overflow=hidden;rotatable=0;points=[[0,0.5],[1,0.5]];portConstraint=eastwest;" vertex="1" parent="XG7lN19OMJaf1REQP0Ma-2">
          <mxGeometry y="156" width="200" height="26" as="geometry" />
        </mxCell>
        <mxCell id="XG7lN19OMJaf1REQP0Ma-9" value="- phone: String" style="text;align=left;verticalAlign=top;spacingLeft=4;spacingRight=4;overflow=hidden;rotatable=0;points=[[0,0.5],[1,0.5]];portConstraint=eastwest;" vertex="1" parent="XG7lN19OMJaf1REQP0Ma-2">
          <mxGeometry y="182" width="200" height="26" as="geometry" />
        </mxCell>
        <mxCell id="XG7lN19OMJaf1REQP0Ma-10" value="- address: String" style="text;align=left;verticalAlign=top;spacingLeft=4;spacingRight=4;overflow=hidden;rotatable=0;points=[[0,0.5],[1,0.5]];portConstraint=eastwest;" vertex="1" parent="XG7lN19OMJaf1REQP0Ma-2">
          <mxGeometry y="208" width="200" height="26" as="geometry" />
        </mxCell>
        <mxCell id="XG7lN19OMJaf1REQP0Ma-11" value="- city: String" style="text;align=left;verticalAlign=top;spacingLeft=4;spacingRight=4;overflow=hidden;rotatable=0;points=[[0,0.5],[1,0.5]];portConstraint=eastwest;" vertex="1" parent="XG7lN19OMJaf1REQP0Ma-2">
          <mxGeometry y="234" width="200" height="26" as="geometry" />
        </mxCell>
        <mxCell id="XG7lN19OMJaf1REQP0Ma-12" value="- state: String" style="text;align=left;verticalAlign=top;spacingLeft=4;spacingRight=4;overflow=hidden;rotatable=0;points=[[0,0.5],[1,0.5]];portConstraint=eastwest;" vertex="1" parent="XG7lN19OMJaf1REQP0Ma-2">
          <mxGeometry y="260" width="200" height="26" as="geometry" />
        </mxCell>
        <mxCell id="XG7lN19OMJaf1REQP0Ma-13" value="- country: String" style="text;align=left;verticalAlign=top;spacingLeft=4;spacingRight=4;overflow=hidden;rotatable=0;points=[[0,0.5],[1,0.5]];portConstraint=eastwest;" vertex="1" parent="XG7lN19OMJaf1REQP0Ma-2">
          <mxGeometry y="286" width="200" height="26" as="geometry" />
        </mxCell>
        <mxCell id="XG7lN19OMJaf1REQP0Ma-14" value="- descrition: String" style="text;align=left;verticalAlign=top;spacingLeft=4;spacingRight=4;overflow=hidden;rotatable=0;points=[[0,0.5],[1,0.5]];portConstraint=eastwest;" vertex="1" parent="XG7lN19OMJaf1REQP0Ma-2">
          <mxGeometry y="312" width="200" height="26" as="geometry" />
        </mxCell>
        <mxCell id="XG7lN19OMJaf1REQP0Ma-15" value="History" style="swimlane;fontStyle=1;childLayout=stackLayout;horizontal=1;startSize=26;horizontalStack=0;resizeParent=1;resizeParentMax=0;resizeLast=0;collapsible=1;marginBottom=0;fontSize=16;" vertex="1" parent="1">
          <mxGeometry x="590" y="497" width="140" height="208" as="geometry" />
        </mxCell>
        <mxCell id="XG7lN19OMJaf1REQP0Ma-16" value="- dateHistory: Date" style="text;align=left;verticalAlign=top;spacingLeft=4;spacingRight=4;overflow=hidden;rotatable=0;points=[[0,0.5],[1,0.5]];portConstraint=eastwest;" vertex="1" parent="XG7lN19OMJaf1REQP0Ma-15">
          <mxGeometry y="26" width="140" height="26" as="geometry" />
        </mxCell>
        <mxCell id="XG7lN19OMJaf1REQP0Ma-17" value="- open: float" style="text;align=left;verticalAlign=top;spacingLeft=4;spacingRight=4;overflow=hidden;rotatable=0;points=[[0,0.5],[1,0.5]];portConstraint=eastwest;" vertex="1" parent="XG7lN19OMJaf1REQP0Ma-15">
          <mxGeometry y="52" width="140" height="26" as="geometry" />
        </mxCell>
        <mxCell id="XG7lN19OMJaf1REQP0Ma-18" value="- close: float" style="text;align=left;verticalAlign=top;spacingLeft=4;spacingRight=4;overflow=hidden;rotatable=0;points=[[0,0.5],[1,0.5]];portConstraint=eastwest;" vertex="1" parent="XG7lN19OMJaf1REQP0Ma-15">
          <mxGeometry y="78" width="140" height="26" as="geometry" />
        </mxCell>
        <mxCell id="XG7lN19OMJaf1REQP0Ma-19" value="- adjustedClose: float" style="text;align=left;verticalAlign=top;spacingLeft=4;spacingRight=4;overflow=hidden;rotatable=0;points=[[0,0.5],[1,0.5]];portConstraint=eastwest;" vertex="1" parent="XG7lN19OMJaf1REQP0Ma-15">
          <mxGeometry y="104" width="140" height="26" as="geometry" />
        </mxCell>
        <mxCell id="XG7lN19OMJaf1REQP0Ma-20" value="- volume: int" style="text;align=left;verticalAlign=top;spacingLeft=4;spacingRight=4;overflow=hidden;rotatable=0;points=[[0,0.5],[1,0.5]];portConstraint=eastwest;" vertex="1" parent="XG7lN19OMJaf1REQP0Ma-15">
          <mxGeometry y="130" width="140" height="26" as="geometry" />
        </mxCell>
        <mxCell id="XG7lN19OMJaf1REQP0Ma-21" value="- high: float" style="text;align=left;verticalAlign=top;spacingLeft=4;spacingRight=4;overflow=hidden;rotatable=0;points=[[0,0.5],[1,0.5]];portConstraint=eastwest;" vertex="1" parent="XG7lN19OMJaf1REQP0Ma-15">
          <mxGeometry y="156" width="140" height="26" as="geometry" />
        </mxCell>
        <mxCell id="XG7lN19OMJaf1REQP0Ma-22" value="- low: float" style="text;align=left;verticalAlign=top;spacingLeft=4;spacingRight=4;overflow=hidden;rotatable=0;points=[[0,0.5],[1,0.5]];portConstraint=eastwest;" vertex="1" parent="XG7lN19OMJaf1REQP0Ma-15">
          <mxGeometry y="182" width="140" height="26" as="geometry" />
        </mxCell>
        <mxCell id="XG7lN19OMJaf1REQP0Ma-23" value="1..1" style="text;html=1;align=center;verticalAlign=middle;resizable=0;points=[];autosize=1;fontSize=16;" vertex="1" parent="1">
          <mxGeometry x="340" y="570" width="40" height="20" as="geometry" />
        </mxCell>
        <mxCell id="XG7lN19OMJaf1REQP0Ma-24" value="0..N" style="text;html=1;align=center;verticalAlign=middle;resizable=0;points=[];autosize=1;fontSize=16;" vertex="1" parent="1">
          <mxGeometry x="540" y="570" width="40" height="20" as="geometry" />
        </mxCell>
        <mxCell id="XG7lN19OMJaf1REQP0Ma-25" value="historicalStored" style="text;html=1;align=center;verticalAlign=middle;resizable=0;points=[];autosize=1;fontSize=16;" vertex="1" parent="1">
          <mxGeometry x="390" y="570" width="130" height="20" as="geometry" />
        </mxCell>
        <mxCell id="XG7lN19OMJaf1REQP0Ma-26" value="Summary" style="swimlane;fontStyle=1;childLayout=stackLayout;horizontal=1;startSize=26;horizontalStack=0;resizeParent=1;resizeParentMax=0;resizeLast=0;collapsible=1;marginBottom=0;fontSize=16;" vertex="1" parent="1">
          <mxGeometry x="155" y="50" width="140" height="260" as="geometry" />
        </mxCell>
        <mxCell id="XG7lN19OMJaf1REQP0Ma-27" value="- statsDate: Date" style="text;align=left;verticalAlign=top;spacingLeft=4;spacingRight=4;overflow=hidden;rotatable=0;points=[[0,0.5],[1,0.5]];portConstraint=eastwest;" vertex="1" parent="XG7lN19OMJaf1REQP0Ma-26">
          <mxGeometry y="26" width="140" height="26" as="geometry" />
        </mxCell>
        <mxCell id="XG7lN19OMJaf1REQP0Ma-28" value="- capitalization: int" style="text;align=left;verticalAlign=top;spacingLeft=4;spacingRight=4;overflow=hidden;rotatable=0;points=[[0,0.5],[1,0.5]];portConstraint=eastwest;" vertex="1" parent="XG7lN19OMJaf1REQP0Ma-26">
          <mxGeometry y="52" width="140" height="26" as="geometry" />
        </mxCell>
        <mxCell id="XG7lN19OMJaf1REQP0Ma-29" value="- P/E ratio: float" style="text;align=left;verticalAlign=top;spacingLeft=4;spacingRight=4;overflow=hidden;rotatable=0;points=[[0,0.5],[1,0.5]];portConstraint=eastwest;" vertex="1" parent="XG7lN19OMJaf1REQP0Ma-26">
          <mxGeometry y="78" width="140" height="26" as="geometry" />
        </mxCell>
        <mxCell id="XG7lN19OMJaf1REQP0Ma-30" value="- EPS: float" style="text;align=left;verticalAlign=top;spacingLeft=4;spacingRight=4;overflow=hidden;rotatable=0;points=[[0,0.5],[1,0.5]];portConstraint=eastwest;" vertex="1" parent="XG7lN19OMJaf1REQP0Ma-26">
          <mxGeometry y="104" width="140" height="26" as="geometry" />
        </mxCell>
        <mxCell id="XG7lN19OMJaf1REQP0Ma-31" value="- dividend: float" style="text;align=left;verticalAlign=top;spacingLeft=4;spacingRight=4;overflow=hidden;rotatable=0;points=[[0,0.5],[1,0.5]];portConstraint=eastwest;" vertex="1" parent="XG7lN19OMJaf1REQP0Ma-26">
          <mxGeometry y="130" width="140" height="26" as="geometry" />
        </mxCell>
        <mxCell id="XG7lN19OMJaf1REQP0Ma-32" value="- targetPrice: float" style="text;align=left;verticalAlign=top;spacingLeft=4;spacingRight=4;overflow=hidden;rotatable=0;points=[[0,0.5],[1,0.5]];portConstraint=eastwest;" vertex="1" parent="XG7lN19OMJaf1REQP0Ma-26">
          <mxGeometry y="156" width="140" height="26" as="geometry" />
        </mxCell>
        <mxCell id="XG7lN19OMJaf1REQP0Ma-33" value="- open: float" style="text;align=left;verticalAlign=top;spacingLeft=4;spacingRight=4;overflow=hidden;rotatable=0;points=[[0,0.5],[1,0.5]];portConstraint=eastwest;" vertex="1" parent="XG7lN19OMJaf1REQP0Ma-26">
          <mxGeometry y="182" width="140" height="26" as="geometry" />
        </mxCell>
        <mxCell id="XG7lN19OMJaf1REQP0Ma-34" value="- close: float" style="text;align=left;verticalAlign=top;spacingLeft=4;spacingRight=4;overflow=hidden;rotatable=0;points=[[0,0.5],[1,0.5]];portConstraint=eastwest;" vertex="1" parent="XG7lN19OMJaf1REQP0Ma-26">
          <mxGeometry y="208" width="140" height="26" as="geometry" />
        </mxCell>
        <mxCell id="XG7lN19OMJaf1REQP0Ma-35" value="- avgVolume: float" style="text;align=left;verticalAlign=top;spacingLeft=4;spacingRight=4;overflow=hidden;rotatable=0;points=[[0,0.5],[1,0.5]];portConstraint=eastwest;" vertex="1" parent="XG7lN19OMJaf1REQP0Ma-26">
          <mxGeometry y="234" width="140" height="26" as="geometry" />
        </mxCell>
        <mxCell id="XG7lN19OMJaf1REQP0Ma-36" value="//Frequenza Settiminale" style="text;html=1;align=center;verticalAlign=middle;resizable=0;points=[];autosize=1;fontSize=16;" vertex="1" parent="1">
          <mxGeometry x="550" y="470" width="180" height="20" as="geometry" />
        </mxCell>
        <mxCell id="XG7lN19OMJaf1REQP0Ma-37" value="1..1" style="text;html=1;align=center;verticalAlign=middle;resizable=0;points=[];autosize=1;fontSize=16;" vertex="1" parent="1">
          <mxGeometry x="230" y="400" width="40" height="20" as="geometry" />
        </mxCell>
        <mxCell id="XG7lN19OMJaf1REQP0Ma-38" value="0..5" style="text;html=1;align=center;verticalAlign=middle;resizable=0;points=[];autosize=1;fontSize=16;" vertex="1" parent="1">
          <mxGeometry x="230" y="320" width="40" height="20" as="geometry" />
        </mxCell>
        <mxCell id="XG7lN19OMJaf1REQP0Ma-39" value="weeklySummaryStored" style="text;html=1;align=center;verticalAlign=middle;resizable=0;points=[];autosize=1;fontSize=16;" vertex="1" parent="1">
          <mxGeometry x="225" y="360" width="180" height="20" as="geometry" />
        </mxCell>
        <mxCell id="XG7lN19OMJaf1REQP0Ma-40" value="0..N" style="text;html=1;align=center;verticalAlign=middle;resizable=0;points=[];autosize=1;fontSize=16;" vertex="1" parent="1">
          <mxGeometry x="70" y="540" width="40" height="20" as="geometry" />
        </mxCell>
        <mxCell id="XG7lN19OMJaf1REQP0Ma-41" value="" style="endArrow=none;html=1;exitX=1;exitY=0.5;exitDx=0;exitDy=0;entryX=0;entryY=0.5;entryDx=0;entryDy=0;" edge="1" parent="1" source="XG7lN19OMJaf1REQP0Ma-8" target="XG7lN19OMJaf1REQP0Ma-15">
          <mxGeometry width="50" height="50" relative="1" as="geometry">
            <mxPoint x="380" y="600" as="sourcePoint" />
            <mxPoint x="530" y="700" as="targetPoint" />
          </mxGeometry>
        </mxCell>
        <mxCell id="XG7lN19OMJaf1REQP0Ma-42" value="" style="endArrow=none;html=1;entryX=0.5;entryY=1;entryDx=0;entryDy=0;exitX=0.5;exitY=0;exitDx=0;exitDy=0;" edge="1" parent="1" source="XG7lN19OMJaf1REQP0Ma-2" target="XG7lN19OMJaf1REQP0Ma-26">
          <mxGeometry width="50" height="50" relative="1" as="geometry">
            <mxPoint x="110" y="270" as="sourcePoint" />
            <mxPoint x="160" y="220" as="targetPoint" />
          </mxGeometry>
        </mxCell>
        <mxCell id="XG7lN19OMJaf1REQP0Ma-43" value="" style="endArrow=none;html=1;fillColor=#FFFFFF;entryX=1;entryY=0.5;entryDx=0;entryDy=0;exitX=0;exitY=0.5;exitDx=0;exitDy=0;" edge="1" parent="1" source="XG7lN19OMJaf1REQP0Ma-7" target="9K69wm-9-MHkOMZKR88a-8">
          <mxGeometry width="50" height="50" relative="1" as="geometry">
            <mxPoint x="110" y="560" as="sourcePoint" />
            <mxPoint x="160" y="510" as="targetPoint" />
          </mxGeometry>
        </mxCell>
        <mxCell id="VLMwowDFyD44VWGbhzLI-1" value="" style="endArrow=none;html=1;fillColor=#FFFFFF;exitX=0.5;exitY=0;exitDx=0;exitDy=0;entryX=0.496;entryY=0.993;entryDx=0;entryDy=0;entryPerimeter=0;" edge="1" parent="1" source="9K69wm-9-MHkOMZKR88a-94" target="XG7lN19OMJaf1REQP0Ma-14">
          <mxGeometry width="50" height="50" relative="1" as="geometry">
            <mxPoint x="40" y="930" as="sourcePoint" />
            <mxPoint x="200" y="810" as="targetPoint" />
          </mxGeometry>
        </mxCell>
        <mxCell id="VLMwowDFyD44VWGbhzLI-2" value="" style="endArrow=none;html=1;fillColor=#FFFFFF;entryX=0;entryY=0.5;entryDx=0;entryDy=0;exitX=1;exitY=0.5;exitDx=0;exitDy=0;" edge="1" parent="1" source="9K69wm-9-MHkOMZKR88a-19" target="9K69wm-9-MHkOMZKR88a-96">
          <mxGeometry width="50" height="50" relative="1" as="geometry">
            <mxPoint x="40" y="930" as="sourcePoint" />
            <mxPoint x="90" y="880" as="targetPoint" />
          </mxGeometry>
        </mxCell>
        <mxCell id="n5bufVYaX2I6qF9HW4i5-1" value="1..1" style="text;html=1;align=center;verticalAlign=middle;resizable=0;points=[];autosize=1;fontSize=16;" vertex="1" parent="1">
          <mxGeometry x="50" y="1040" width="40" height="20" as="geometry" />
        </mxCell>
      </root>
    </mxGraphModel>
  </diagram>
  <diagram id="RQuocufHJd686c7p0azE" name="Page-2">
    <mxGraphModel dx="1108" dy="450" grid="1" gridSize="10" guides="1" tooltips="1" connect="1" arrows="1" fold="1" page="1" pageScale="1" pageWidth="827" pageHeight="1169" math="0" shadow="0">
      <root>
        <mxCell id="6vQs2nbCx0rCWX8Hwp_1-0" />
        <mxCell id="6vQs2nbCx0rCWX8Hwp_1-1" parent="6vQs2nbCx0rCWX8Hwp_1-0" />
        <mxCell id="n5IdorZSIMEuO9a2ge6M-0" value="NormalUser" style="swimlane;fontStyle=1;childLayout=stackLayout;horizontal=1;startSize=26;horizontalStack=0;resizeParent=1;resizeParentMax=0;resizeLast=0;collapsible=1;marginBottom=0;fontSize=16;" parent="6vQs2nbCx0rCWX8Hwp_1-1" vertex="1">
          <mxGeometry x="760" y="703" width="300" height="366" as="geometry" />
        </mxCell>
        <mxCell id="n5IdorZSIMEuO9a2ge6M-1" value="- username: String" style="text;align=left;verticalAlign=top;spacingLeft=4;spacingRight=4;overflow=hidden;rotatable=0;points=[[0,0.5],[1,0.5]];portConstraint=eastwest;fillColor=#dae8fc;strokeColor=#6c8ebf;" parent="n5IdorZSIMEuO9a2ge6M-0" vertex="1">
          <mxGeometry y="26" width="300" height="26" as="geometry" />
        </mxCell>
        <mxCell id="n5IdorZSIMEuO9a2ge6M-2" value="- password: String" style="text;strokeColor=#6c8ebf;fillColor=#dae8fc;align=left;verticalAlign=top;spacingLeft=4;spacingRight=4;overflow=hidden;rotatable=0;points=[[0,0.5],[1,0.5]];portConstraint=eastwest;" parent="n5IdorZSIMEuO9a2ge6M-0" vertex="1">
          <mxGeometry y="52" width="300" height="26" as="geometry" />
        </mxCell>
        <mxCell id="n5IdorZSIMEuO9a2ge6M-3" value="- name: String&#xa;" style="text;strokeColor=#6c8ebf;fillColor=#dae8fc;align=left;verticalAlign=top;spacingLeft=4;spacingRight=4;overflow=hidden;rotatable=0;points=[[0,0.5],[1,0.5]];portConstraint=eastwest;" parent="n5IdorZSIMEuO9a2ge6M-0" vertex="1">
          <mxGeometry y="78" width="300" height="32" as="geometry" />
        </mxCell>
        <mxCell id="n5IdorZSIMEuO9a2ge6M-4" value="- surname: String&#xa;" style="text;strokeColor=#6c8ebf;fillColor=#dae8fc;align=left;verticalAlign=top;spacingLeft=4;spacingRight=4;overflow=hidden;rotatable=0;points=[[0,0.5],[1,0.5]];portConstraint=eastwest;" parent="n5IdorZSIMEuO9a2ge6M-0" vertex="1">
          <mxGeometry y="110" width="300" height="32" as="geometry" />
        </mxCell>
        <mxCell id="n5IdorZSIMEuO9a2ge6M-5" value="- DateOfBirth: Date&#xa;" style="text;strokeColor=#6c8ebf;fillColor=#dae8fc;align=left;verticalAlign=top;spacingLeft=4;spacingRight=4;overflow=hidden;rotatable=0;points=[[0,0.5],[1,0.5]];portConstraint=eastwest;" parent="n5IdorZSIMEuO9a2ge6M-0" vertex="1">
          <mxGeometry y="142" width="300" height="32" as="geometry" />
        </mxCell>
        <mxCell id="n5IdorZSIMEuO9a2ge6M-6" value="- gender: char&#xa;" style="text;strokeColor=#6c8ebf;fillColor=#dae8fc;align=left;verticalAlign=top;spacingLeft=4;spacingRight=4;overflow=hidden;rotatable=0;points=[[0,0.5],[1,0.5]];portConstraint=eastwest;" parent="n5IdorZSIMEuO9a2ge6M-0" vertex="1">
          <mxGeometry y="174" width="300" height="32" as="geometry" />
        </mxCell>
        <mxCell id="n5IdorZSIMEuO9a2ge6M-7" value="- email: String&#xa;" style="text;strokeColor=#6c8ebf;fillColor=#dae8fc;align=left;verticalAlign=top;spacingLeft=4;spacingRight=4;overflow=hidden;rotatable=0;points=[[0,0.5],[1,0.5]];portConstraint=eastwest;" parent="n5IdorZSIMEuO9a2ge6M-0" vertex="1">
          <mxGeometry y="206" width="300" height="32" as="geometry" />
        </mxCell>
        <mxCell id="n5IdorZSIMEuO9a2ge6M-8" value="- country: String&#xa;" style="text;strokeColor=#6c8ebf;fillColor=#dae8fc;align=left;verticalAlign=top;spacingLeft=4;spacingRight=4;overflow=hidden;rotatable=0;points=[[0,0.5],[1,0.5]];portConstraint=eastwest;" parent="n5IdorZSIMEuO9a2ge6M-0" vertex="1">
          <mxGeometry y="238" width="300" height="32" as="geometry" />
        </mxCell>
        <mxCell id="n5IdorZSIMEuO9a2ge6M-9" value="- followedUsers: int&#xa;" style="text;strokeColor=#6c8ebf;fillColor=#dae8fc;align=left;verticalAlign=top;spacingLeft=4;spacingRight=4;overflow=hidden;rotatable=0;points=[[0,0.5],[1,0.5]];portConstraint=eastwest;" parent="n5IdorZSIMEuO9a2ge6M-0" vertex="1">
          <mxGeometry y="270" width="300" height="32" as="geometry" />
        </mxCell>
        <mxCell id="n5IdorZSIMEuO9a2ge6M-10" value="- followedCompanies: int&#xa;" style="text;strokeColor=#6c8ebf;fillColor=#dae8fc;align=left;verticalAlign=top;spacingLeft=4;spacingRight=4;overflow=hidden;rotatable=0;points=[[0,0.5],[1,0.5]];portConstraint=eastwest;" parent="n5IdorZSIMEuO9a2ge6M-0" vertex="1">
          <mxGeometry y="302" width="300" height="32" as="geometry" />
        </mxCell>
        <mxCell id="n5IdorZSIMEuO9a2ge6M-11" value="/*Possibile gestione dei campi followed con GDB*/" style="text;align=left;verticalAlign=top;spacingLeft=4;spacingRight=4;overflow=hidden;rotatable=0;points=[[0,0.5],[1,0.5]];portConstraint=eastwest;" parent="n5IdorZSIMEuO9a2ge6M-0" vertex="1">
          <mxGeometry y="334" width="300" height="32" as="geometry" />
        </mxCell>
        <mxCell id="n5IdorZSIMEuO9a2ge6M-12" value="" style="endArrow=none;html=1;strokeColor=#000000;fontSize=16;rounded=0;edgeStyle=orthogonalEdgeStyle;exitX=0;exitY=0.5;exitDx=0;exitDy=0;entryX=0;entryY=0.5;entryDx=0;entryDy=0;" parent="n5IdorZSIMEuO9a2ge6M-0" source="n5IdorZSIMEuO9a2ge6M-8" target="n5IdorZSIMEuO9a2ge6M-3" edge="1">
          <mxGeometry width="50" height="50" relative="1" as="geometry">
            <mxPoint x="-110" y="220" as="sourcePoint" />
            <mxPoint x="-60" y="170" as="targetPoint" />
            <Array as="points">
              <mxPoint x="-100" y="254" />
              <mxPoint x="-100" y="94" />
            </Array>
          </mxGeometry>
        </mxCell>
        <mxCell id="n5IdorZSIMEuO9a2ge6M-13" value="ProfessionalUser" style="swimlane;fontStyle=1;childLayout=stackLayout;horizontal=1;startSize=26;fillColor=none;horizontalStack=0;resizeParent=1;resizeParentMax=0;resizeLast=0;collapsible=1;marginBottom=0;fontSize=16;" parent="6vQs2nbCx0rCWX8Hwp_1-1" vertex="1">
          <mxGeometry x="670" y="1190" width="220" height="168" as="geometry" />
        </mxCell>
        <mxCell id="n5IdorZSIMEuO9a2ge6M-14" value="- Profession: String" style="text;strokeColor=#6c8ebf;fillColor=#dae8fc;align=left;verticalAlign=top;spacingLeft=4;spacingRight=4;overflow=hidden;rotatable=0;points=[[0,0.5],[1,0.5]];portConstraint=eastwest;" parent="n5IdorZSIMEuO9a2ge6M-13" vertex="1">
          <mxGeometry y="26" width="220" height="26" as="geometry" />
        </mxCell>
        <mxCell id="n5IdorZSIMEuO9a2ge6M-15" value="- SpecializationSector: List&lt;String&gt;" style="text;strokeColor=#6c8ebf;fillColor=#dae8fc;align=left;verticalAlign=top;spacingLeft=4;spacingRight=4;overflow=hidden;rotatable=0;points=[[0,0.5],[1,0.5]];portConstraint=eastwest;" parent="n5IdorZSIMEuO9a2ge6M-13" vertex="1">
          <mxGeometry y="52" width="220" height="26" as="geometry" />
        </mxCell>
        <mxCell id="n5IdorZSIMEuO9a2ge6M-16" value="- CurriculumVitae: Text(String)" style="text;strokeColor=#6c8ebf;fillColor=#dae8fc;align=left;verticalAlign=top;spacingLeft=4;spacingRight=4;overflow=hidden;rotatable=0;points=[[0,0.5],[1,0.5]];portConstraint=eastwest;" parent="n5IdorZSIMEuO9a2ge6M-13" vertex="1">
          <mxGeometry y="78" width="220" height="26" as="geometry" />
        </mxCell>
        <mxCell id="n5IdorZSIMEuO9a2ge6M-17" value="- avarageRating: double&#xa;" style="text;strokeColor=#6c8ebf;fillColor=#dae8fc;align=left;verticalAlign=top;spacingLeft=4;spacingRight=4;overflow=hidden;rotatable=0;points=[[0,0.5],[1,0.5]];portConstraint=eastwest;" parent="n5IdorZSIMEuO9a2ge6M-13" vertex="1">
          <mxGeometry y="104" width="220" height="32" as="geometry" />
        </mxCell>
        <mxCell id="n5IdorZSIMEuO9a2ge6M-18" value="/*ricontrollare i nomi degli attributi*/" style="text;strokeColor=none;fillColor=none;align=left;verticalAlign=top;spacingLeft=4;spacingRight=4;overflow=hidden;rotatable=0;points=[[0,0.5],[1,0.5]];portConstraint=eastwest;" parent="n5IdorZSIMEuO9a2ge6M-13" vertex="1">
          <mxGeometry y="136" width="220" height="32" as="geometry" />
        </mxCell>
        <mxCell id="n5IdorZSIMEuO9a2ge6M-19" value="" style="endArrow=block;endSize=16;endFill=0;html=1;fontSize=16;edgeStyle=orthogonalEdgeStyle;rounded=0;exitX=0.5;exitY=0;exitDx=0;exitDy=0;entryX=0.453;entryY=1.094;entryDx=0;entryDy=0;entryPerimeter=0;" parent="6vQs2nbCx0rCWX8Hwp_1-1" source="n5IdorZSIMEuO9a2ge6M-13" target="n5IdorZSIMEuO9a2ge6M-11" edge="1">
          <mxGeometry width="160" relative="1" as="geometry">
            <mxPoint x="780" y="1122" as="sourcePoint" />
            <mxPoint x="942" y="1186" as="targetPoint" />
            <Array as="points">
              <mxPoint x="780" y="1106" />
              <mxPoint x="896" y="1106" />
            </Array>
          </mxGeometry>
        </mxCell>
        <mxCell id="n5IdorZSIMEuO9a2ge6M-20" value="Administrator" style="swimlane;fontStyle=1;childLayout=stackLayout;horizontal=1;startSize=26;fillColor=none;horizontalStack=0;resizeParent=1;resizeParentMax=0;resizeLast=0;collapsible=1;marginBottom=0;fontSize=16;" parent="6vQs2nbCx0rCWX8Hwp_1-1" vertex="1">
          <mxGeometry x="930" y="1190" width="190" height="30" as="geometry" />
        </mxCell>
        <mxCell id="n5IdorZSIMEuO9a2ge6M-21" value="" style="endArrow=none;html=1;strokeColor=#000000;fontSize=16;edgeStyle=orthogonalEdgeStyle;rounded=0;exitX=0.5;exitY=0;exitDx=0;exitDy=0;" parent="6vQs2nbCx0rCWX8Hwp_1-1" source="n5IdorZSIMEuO9a2ge6M-20" edge="1">
          <mxGeometry width="50" height="50" relative="1" as="geometry">
            <mxPoint x="1070" y="1136" as="sourcePoint" />
            <mxPoint x="890" y="1106" as="targetPoint" />
            <Array as="points">
              <mxPoint x="1025" y="1106" />
            </Array>
          </mxGeometry>
        </mxCell>
        <mxCell id="n5IdorZSIMEuO9a2ge6M-22" value="follows" style="text;html=1;align=center;verticalAlign=middle;resizable=0;points=[];autosize=1;fontSize=16;" parent="6vQs2nbCx0rCWX8Hwp_1-1" vertex="1">
          <mxGeometry x="600" y="876" width="60" height="20" as="geometry" />
        </mxCell>
        <mxCell id="n5IdorZSIMEuO9a2ge6M-23" value="0..N" style="text;html=1;align=center;verticalAlign=middle;resizable=0;points=[];autosize=1;fontSize=16;" parent="6vQs2nbCx0rCWX8Hwp_1-1" vertex="1">
          <mxGeometry x="710" y="956" width="40" height="20" as="geometry" />
        </mxCell>
        <mxCell id="n5IdorZSIMEuO9a2ge6M-24" value="0..N" style="text;html=1;align=center;verticalAlign=middle;resizable=0;points=[];autosize=1;fontSize=16;" parent="6vQs2nbCx0rCWX8Hwp_1-1" vertex="1">
          <mxGeometry x="710" y="766" width="40" height="20" as="geometry" />
        </mxCell>
        <mxCell id="n5IdorZSIMEuO9a2ge6M-25" style="edgeStyle=orthogonalEdgeStyle;rounded=0;orthogonalLoop=1;jettySize=auto;html=1;exitX=0.5;exitY=0;exitDx=0;exitDy=0;strokeColor=#000000;fontSize=16;endArrow=none;endFill=0;" parent="6vQs2nbCx0rCWX8Hwp_1-1" source="n5IdorZSIMEuO9a2ge6M-26" target="n5IdorZSIMEuO9a2ge6M-52" edge="1">
          <mxGeometry relative="1" as="geometry">
            <Array as="points">
              <mxPoint x="1515" y="660" />
              <mxPoint x="1515" y="660" />
            </Array>
          </mxGeometry>
        </mxCell>
        <mxCell id="n5IdorZSIMEuO9a2ge6M-26" value="Company" style="swimlane;fontStyle=1;childLayout=stackLayout;horizontal=1;startSize=26;fillColor=none;horizontalStack=0;resizeParent=1;resizeParentMax=0;resizeLast=0;collapsible=1;marginBottom=0;fontSize=16;" parent="6vQs2nbCx0rCWX8Hwp_1-1" vertex="1">
          <mxGeometry x="1415" y="692" width="200" height="338" as="geometry" />
        </mxCell>
        <mxCell id="n5IdorZSIMEuO9a2ge6M-27" value="- name: String" style="text;strokeColor=#d79b00;fillColor=#ffe6cc;align=left;verticalAlign=top;spacingLeft=4;spacingRight=4;overflow=hidden;rotatable=0;points=[[0,0.5],[1,0.5]];portConstraint=eastwest;" parent="n5IdorZSIMEuO9a2ge6M-26" vertex="1">
          <mxGeometry y="26" width="200" height="26" as="geometry" />
        </mxCell>
        <mxCell id="n5IdorZSIMEuO9a2ge6M-28" value="- symbol: String" style="text;strokeColor=#d79b00;fillColor=#ffe6cc;align=left;verticalAlign=top;spacingLeft=4;spacingRight=4;overflow=hidden;rotatable=0;points=[[0,0.5],[1,0.5]];portConstraint=eastwest;" parent="n5IdorZSIMEuO9a2ge6M-26" vertex="1">
          <mxGeometry y="52" width="200" height="26" as="geometry" />
        </mxCell>
        <mxCell id="n5IdorZSIMEuO9a2ge6M-30" value="- sector: String" style="text;strokeColor=#d79b00;fillColor=#ffe6cc;align=left;verticalAlign=top;spacingLeft=4;spacingRight=4;overflow=hidden;rotatable=0;points=[[0,0.5],[1,0.5]];portConstraint=eastwest;" parent="n5IdorZSIMEuO9a2ge6M-26" vertex="1">
          <mxGeometry y="78" width="200" height="26" as="geometry" />
        </mxCell>
        <mxCell id="n5IdorZSIMEuO9a2ge6M-29" value="- stockExchange: String" style="text;strokeColor=#d79b00;fillColor=#ffe6cc;align=left;verticalAlign=top;spacingLeft=4;spacingRight=4;overflow=hidden;rotatable=0;points=[[0,0.5],[1,0.5]];portConstraint=eastwest;" parent="n5IdorZSIMEuO9a2ge6M-26" vertex="1">
          <mxGeometry y="104" width="200" height="26" as="geometry" />
        </mxCell>
        <mxCell id="n5IdorZSIMEuO9a2ge6M-31" value="- website: String" style="text;strokeColor=#6c8ebf;fillColor=#dae8fc;align=left;verticalAlign=top;spacingLeft=4;spacingRight=4;overflow=hidden;rotatable=0;points=[[0,0.5],[1,0.5]];portConstraint=eastwest;" parent="n5IdorZSIMEuO9a2ge6M-26" vertex="1">
          <mxGeometry y="130" width="200" height="26" as="geometry" />
        </mxCell>
        <mxCell id="n5IdorZSIMEuO9a2ge6M-33" value="- fullTimesEmployees: int" style="text;strokeColor=#6c8ebf;fillColor=#dae8fc;align=left;verticalAlign=top;spacingLeft=4;spacingRight=4;overflow=hidden;rotatable=0;points=[[0,0.5],[1,0.5]];portConstraint=eastwest;" parent="n5IdorZSIMEuO9a2ge6M-26" vertex="1">
          <mxGeometry y="156" width="200" height="26" as="geometry" />
        </mxCell>
        <mxCell id="n5IdorZSIMEuO9a2ge6M-34" value="- phone: String" style="text;strokeColor=#6c8ebf;fillColor=#dae8fc;align=left;verticalAlign=top;spacingLeft=4;spacingRight=4;overflow=hidden;rotatable=0;points=[[0,0.5],[1,0.5]];portConstraint=eastwest;" parent="n5IdorZSIMEuO9a2ge6M-26" vertex="1">
          <mxGeometry y="182" width="200" height="26" as="geometry" />
        </mxCell>
        <mxCell id="n5IdorZSIMEuO9a2ge6M-35" value="- address: String" style="text;strokeColor=#6c8ebf;fillColor=#dae8fc;align=left;verticalAlign=top;spacingLeft=4;spacingRight=4;overflow=hidden;rotatable=0;points=[[0,0.5],[1,0.5]];portConstraint=eastwest;" parent="n5IdorZSIMEuO9a2ge6M-26" vertex="1">
          <mxGeometry y="208" width="200" height="26" as="geometry" />
        </mxCell>
        <mxCell id="n5IdorZSIMEuO9a2ge6M-36" value="- city: String" style="text;strokeColor=#6c8ebf;fillColor=#dae8fc;align=left;verticalAlign=top;spacingLeft=4;spacingRight=4;overflow=hidden;rotatable=0;points=[[0,0.5],[1,0.5]];portConstraint=eastwest;" parent="n5IdorZSIMEuO9a2ge6M-26" vertex="1">
          <mxGeometry y="234" width="200" height="26" as="geometry" />
        </mxCell>
        <mxCell id="jqLCxOOqE6YiyRdXE_m4-0" value="- state: String" style="text;strokeColor=#6c8ebf;fillColor=#dae8fc;align=left;verticalAlign=top;spacingLeft=4;spacingRight=4;overflow=hidden;rotatable=0;points=[[0,0.5],[1,0.5]];portConstraint=eastwest;" vertex="1" parent="n5IdorZSIMEuO9a2ge6M-26">
          <mxGeometry y="260" width="200" height="26" as="geometry" />
        </mxCell>
        <mxCell id="jqLCxOOqE6YiyRdXE_m4-1" value="- country: String" style="text;strokeColor=#6c8ebf;fillColor=#dae8fc;align=left;verticalAlign=top;spacingLeft=4;spacingRight=4;overflow=hidden;rotatable=0;points=[[0,0.5],[1,0.5]];portConstraint=eastwest;" vertex="1" parent="n5IdorZSIMEuO9a2ge6M-26">
          <mxGeometry y="286" width="200" height="26" as="geometry" />
        </mxCell>
        <mxCell id="n5IdorZSIMEuO9a2ge6M-37" value="- descrition: String" style="text;strokeColor=#6c8ebf;fillColor=#dae8fc;align=left;verticalAlign=top;spacingLeft=4;spacingRight=4;overflow=hidden;rotatable=0;points=[[0,0.5],[1,0.5]];portConstraint=eastwest;" parent="n5IdorZSIMEuO9a2ge6M-26" vertex="1">
          <mxGeometry y="312" width="200" height="26" as="geometry" />
        </mxCell>
        <mxCell id="n5IdorZSIMEuO9a2ge6M-39" value="History" style="swimlane;fontStyle=1;childLayout=stackLayout;horizontal=1;startSize=26;fillColor=none;horizontalStack=0;resizeParent=1;resizeParentMax=0;resizeLast=0;collapsible=1;marginBottom=0;fontSize=16;" parent="6vQs2nbCx0rCWX8Hwp_1-1" vertex="1">
          <mxGeometry x="1928" y="757" width="140" height="208" as="geometry" />
        </mxCell>
        <mxCell id="n5IdorZSIMEuO9a2ge6M-40" value="- dateHistory: Date" style="text;strokeColor=#9673a6;fillColor=#e1d5e7;align=left;verticalAlign=top;spacingLeft=4;spacingRight=4;overflow=hidden;rotatable=0;points=[[0,0.5],[1,0.5]];portConstraint=eastwest;" parent="n5IdorZSIMEuO9a2ge6M-39" vertex="1">
          <mxGeometry y="26" width="140" height="26" as="geometry" />
        </mxCell>
        <mxCell id="n5IdorZSIMEuO9a2ge6M-41" value="- open: float" style="text;strokeColor=#9673a6;fillColor=#e1d5e7;align=left;verticalAlign=top;spacingLeft=4;spacingRight=4;overflow=hidden;rotatable=0;points=[[0,0.5],[1,0.5]];portConstraint=eastwest;" parent="n5IdorZSIMEuO9a2ge6M-39" vertex="1">
          <mxGeometry y="52" width="140" height="26" as="geometry" />
        </mxCell>
        <mxCell id="n5IdorZSIMEuO9a2ge6M-42" value="- close: float" style="text;strokeColor=#9673a6;fillColor=#e1d5e7;align=left;verticalAlign=top;spacingLeft=4;spacingRight=4;overflow=hidden;rotatable=0;points=[[0,0.5],[1,0.5]];portConstraint=eastwest;" parent="n5IdorZSIMEuO9a2ge6M-39" vertex="1">
          <mxGeometry y="78" width="140" height="26" as="geometry" />
        </mxCell>
        <mxCell id="n5IdorZSIMEuO9a2ge6M-43" value="- adjustedClose: float" style="text;strokeColor=#9673a6;fillColor=#e1d5e7;align=left;verticalAlign=top;spacingLeft=4;spacingRight=4;overflow=hidden;rotatable=0;points=[[0,0.5],[1,0.5]];portConstraint=eastwest;" parent="n5IdorZSIMEuO9a2ge6M-39" vertex="1">
          <mxGeometry y="104" width="140" height="26" as="geometry" />
        </mxCell>
        <mxCell id="jqLCxOOqE6YiyRdXE_m4-3" value="- volume: int" style="text;strokeColor=#9673a6;fillColor=#e1d5e7;align=left;verticalAlign=top;spacingLeft=4;spacingRight=4;overflow=hidden;rotatable=0;points=[[0,0.5],[1,0.5]];portConstraint=eastwest;" vertex="1" parent="n5IdorZSIMEuO9a2ge6M-39">
          <mxGeometry y="130" width="140" height="26" as="geometry" />
        </mxCell>
        <mxCell id="n5IdorZSIMEuO9a2ge6M-44" value="- high: float" style="text;strokeColor=#9673a6;fillColor=#e1d5e7;align=left;verticalAlign=top;spacingLeft=4;spacingRight=4;overflow=hidden;rotatable=0;points=[[0,0.5],[1,0.5]];portConstraint=eastwest;" parent="n5IdorZSIMEuO9a2ge6M-39" vertex="1">
          <mxGeometry y="156" width="140" height="26" as="geometry" />
        </mxCell>
        <mxCell id="jqLCxOOqE6YiyRdXE_m4-2" value="- low: float" style="text;strokeColor=#9673a6;fillColor=#e1d5e7;align=left;verticalAlign=top;spacingLeft=4;spacingRight=4;overflow=hidden;rotatable=0;points=[[0,0.5],[1,0.5]];portConstraint=eastwest;" vertex="1" parent="n5IdorZSIMEuO9a2ge6M-39">
          <mxGeometry y="182" width="140" height="26" as="geometry" />
        </mxCell>
        <mxCell id="n5IdorZSIMEuO9a2ge6M-45" value="1..1" style="text;html=1;align=center;verticalAlign=middle;resizable=0;points=[];autosize=1;fontSize=16;" parent="6vQs2nbCx0rCWX8Hwp_1-1" vertex="1">
          <mxGeometry x="1630" y="830" width="40" height="20" as="geometry" />
        </mxCell>
        <mxCell id="n5IdorZSIMEuO9a2ge6M-46" value="0..N" style="text;html=1;align=center;verticalAlign=middle;resizable=0;points=[];autosize=1;fontSize=16;" parent="6vQs2nbCx0rCWX8Hwp_1-1" vertex="1">
          <mxGeometry x="1880" y="830" width="40" height="20" as="geometry" />
        </mxCell>
        <mxCell id="n5IdorZSIMEuO9a2ge6M-47" value="historicalStored" style="text;html=1;align=center;verticalAlign=middle;resizable=0;points=[];autosize=1;fontSize=16;" parent="6vQs2nbCx0rCWX8Hwp_1-1" vertex="1">
          <mxGeometry x="1710" y="830" width="130" height="20" as="geometry" />
        </mxCell>
        <mxCell id="n5IdorZSIMEuO9a2ge6M-48" value="Summary" style="swimlane;fontStyle=1;childLayout=stackLayout;horizontal=1;startSize=26;fillColor=none;horizontalStack=0;resizeParent=1;resizeParentMax=0;resizeLast=0;collapsible=1;marginBottom=0;fontSize=16;" parent="6vQs2nbCx0rCWX8Hwp_1-1" vertex="1">
          <mxGeometry x="1445" y="280" width="140" height="260" as="geometry" />
        </mxCell>
        <mxCell id="n5IdorZSIMEuO9a2ge6M-49" value="- statsDate: Date" style="text;strokeColor=#9673a6;fillColor=#e1d5e7;align=left;verticalAlign=top;spacingLeft=4;spacingRight=4;overflow=hidden;rotatable=0;points=[[0,0.5],[1,0.5]];portConstraint=eastwest;" parent="n5IdorZSIMEuO9a2ge6M-48" vertex="1">
          <mxGeometry y="26" width="140" height="26" as="geometry" />
        </mxCell>
        <mxCell id="n5IdorZSIMEuO9a2ge6M-50" value="- capitalization: int" style="text;strokeColor=#9673a6;fillColor=#e1d5e7;align=left;verticalAlign=top;spacingLeft=4;spacingRight=4;overflow=hidden;rotatable=0;points=[[0,0.5],[1,0.5]];portConstraint=eastwest;" parent="n5IdorZSIMEuO9a2ge6M-48" vertex="1">
          <mxGeometry y="52" width="140" height="26" as="geometry" />
        </mxCell>
        <mxCell id="n5IdorZSIMEuO9a2ge6M-51" value="- P/E ratio: float" style="text;strokeColor=#9673a6;fillColor=#e1d5e7;align=left;verticalAlign=top;spacingLeft=4;spacingRight=4;overflow=hidden;rotatable=0;points=[[0,0.5],[1,0.5]];portConstraint=eastwest;" parent="n5IdorZSIMEuO9a2ge6M-48" vertex="1">
          <mxGeometry y="78" width="140" height="26" as="geometry" />
        </mxCell>
        <mxCell id="n5IdorZSIMEuO9a2ge6M-52" value="- EPS: float" style="text;strokeColor=#9673a6;fillColor=#e1d5e7;align=left;verticalAlign=top;spacingLeft=4;spacingRight=4;overflow=hidden;rotatable=0;points=[[0,0.5],[1,0.5]];portConstraint=eastwest;" parent="n5IdorZSIMEuO9a2ge6M-48" vertex="1">
          <mxGeometry y="104" width="140" height="26" as="geometry" />
        </mxCell>
        <mxCell id="n5IdorZSIMEuO9a2ge6M-53" value="- dividend: float" style="text;strokeColor=#9673a6;fillColor=#e1d5e7;align=left;verticalAlign=top;spacingLeft=4;spacingRight=4;overflow=hidden;rotatable=0;points=[[0,0.5],[1,0.5]];portConstraint=eastwest;" parent="n5IdorZSIMEuO9a2ge6M-48" vertex="1">
          <mxGeometry y="130" width="140" height="26" as="geometry" />
        </mxCell>
        <mxCell id="n5IdorZSIMEuO9a2ge6M-54" value="- targetPrice: float" style="text;strokeColor=#9673a6;fillColor=#e1d5e7;align=left;verticalAlign=top;spacingLeft=4;spacingRight=4;overflow=hidden;rotatable=0;points=[[0,0.5],[1,0.5]];portConstraint=eastwest;" parent="n5IdorZSIMEuO9a2ge6M-48" vertex="1">
          <mxGeometry y="156" width="140" height="26" as="geometry" />
        </mxCell>
        <mxCell id="PMU1UyoQmVQauGlsIvOe-1" value="- open: float" style="text;strokeColor=#9673a6;fillColor=#e1d5e7;align=left;verticalAlign=top;spacingLeft=4;spacingRight=4;overflow=hidden;rotatable=0;points=[[0,0.5],[1,0.5]];portConstraint=eastwest;" parent="n5IdorZSIMEuO9a2ge6M-48" vertex="1">
          <mxGeometry y="182" width="140" height="26" as="geometry" />
        </mxCell>
        <mxCell id="PMU1UyoQmVQauGlsIvOe-0" value="- close: float" style="text;strokeColor=#9673a6;fillColor=#e1d5e7;align=left;verticalAlign=top;spacingLeft=4;spacingRight=4;overflow=hidden;rotatable=0;points=[[0,0.5],[1,0.5]];portConstraint=eastwest;" parent="n5IdorZSIMEuO9a2ge6M-48" vertex="1">
          <mxGeometry y="208" width="140" height="26" as="geometry" />
        </mxCell>
        <mxCell id="n5IdorZSIMEuO9a2ge6M-59" value="- avgVolume: float" style="text;strokeColor=#9673a6;fillColor=#e1d5e7;align=left;verticalAlign=top;spacingLeft=4;spacingRight=4;overflow=hidden;rotatable=0;points=[[0,0.5],[1,0.5]];portConstraint=eastwest;" parent="n5IdorZSIMEuO9a2ge6M-48" vertex="1">
          <mxGeometry y="234" width="140" height="26" as="geometry" />
        </mxCell>
        <mxCell id="n5IdorZSIMEuO9a2ge6M-64" value="//Frequenza Settiminale" style="text;html=1;align=center;verticalAlign=middle;resizable=0;points=[];autosize=1;fontSize=16;" parent="6vQs2nbCx0rCWX8Hwp_1-1" vertex="1">
          <mxGeometry x="1908" y="726" width="180" height="20" as="geometry" />
        </mxCell>
        <mxCell id="n5IdorZSIMEuO9a2ge6M-69" value="1..1" style="text;html=1;align=center;verticalAlign=middle;resizable=0;points=[];autosize=1;fontSize=16;" parent="6vQs2nbCx0rCWX8Hwp_1-1" vertex="1">
          <mxGeometry x="1520" y="660" width="40" height="20" as="geometry" />
        </mxCell>
        <mxCell id="n5IdorZSIMEuO9a2ge6M-70" value="0..5" style="text;html=1;align=center;verticalAlign=middle;resizable=0;points=[];autosize=1;fontSize=16;" parent="6vQs2nbCx0rCWX8Hwp_1-1" vertex="1">
          <mxGeometry x="1520" y="560" width="40" height="20" as="geometry" />
        </mxCell>
        <mxCell id="n5IdorZSIMEuO9a2ge6M-71" value="weeklySummaryStored" style="text;html=1;align=center;verticalAlign=middle;resizable=0;points=[];autosize=1;fontSize=16;" parent="6vQs2nbCx0rCWX8Hwp_1-1" vertex="1">
          <mxGeometry x="1530" y="600" width="180" height="20" as="geometry" />
        </mxCell>
        <mxCell id="n5IdorZSIMEuO9a2ge6M-73" value="0..N" style="text;html=1;align=center;verticalAlign=middle;resizable=0;points=[];autosize=1;fontSize=16;" parent="6vQs2nbCx0rCWX8Hwp_1-1" vertex="1">
          <mxGeometry x="1080" y="830" width="40" height="20" as="geometry" />
        </mxCell>
        <mxCell id="n5IdorZSIMEuO9a2ge6M-74" value="0..N" style="text;html=1;align=center;verticalAlign=middle;resizable=0;points=[];autosize=1;fontSize=16;" parent="6vQs2nbCx0rCWX8Hwp_1-1" vertex="1">
          <mxGeometry x="1350" y="830" width="40" height="20" as="geometry" />
        </mxCell>
        <mxCell id="n5IdorZSIMEuO9a2ge6M-75" value="watchList" style="text;html=1;align=center;verticalAlign=middle;resizable=0;points=[];autosize=1;fontSize=16;" parent="6vQs2nbCx0rCWX8Hwp_1-1" vertex="1">
          <mxGeometry x="1200" y="830" width="80" height="20" as="geometry" />
        </mxCell>
        <mxCell id="n5IdorZSIMEuO9a2ge6M-76" value="Rating" style="swimlane;fontStyle=1;childLayout=stackLayout;horizontal=1;startSize=26;fillColor=none;horizontalStack=0;resizeParent=1;resizeParentMax=0;resizeLast=0;collapsible=1;marginBottom=0;fontSize=16;" parent="6vQs2nbCx0rCWX8Hwp_1-1" vertex="1">
          <mxGeometry x="350" y="1096" width="140" height="52" as="geometry" />
        </mxCell>
        <mxCell id="n5IdorZSIMEuO9a2ge6M-77" value="- vote: int" style="text;strokeColor=#6c8ebf;fillColor=#dae8fc;align=left;verticalAlign=top;spacingLeft=4;spacingRight=4;overflow=hidden;rotatable=0;points=[[0,0.5],[1,0.5]];portConstraint=eastwest;" parent="n5IdorZSIMEuO9a2ge6M-76" vertex="1">
          <mxGeometry y="26" width="140" height="26" as="geometry" />
        </mxCell>
        <mxCell id="n5IdorZSIMEuO9a2ge6M-78" style="edgeStyle=orthogonalEdgeStyle;rounded=0;orthogonalLoop=1;jettySize=auto;html=1;exitX=0;exitY=0.5;exitDx=0;exitDy=0;entryX=0.5;entryY=0;entryDx=0;entryDy=0;endArrow=none;endFill=0;strokeColor=#000000;fontSize=16;" parent="6vQs2nbCx0rCWX8Hwp_1-1" source="n5IdorZSIMEuO9a2ge6M-10" target="n5IdorZSIMEuO9a2ge6M-76" edge="1">
          <mxGeometry relative="1" as="geometry" />
        </mxCell>
        <mxCell id="n5IdorZSIMEuO9a2ge6M-79" style="edgeStyle=orthogonalEdgeStyle;rounded=0;orthogonalLoop=1;jettySize=auto;html=1;exitX=0;exitY=0.5;exitDx=0;exitDy=0;entryX=0.45;entryY=0.962;entryDx=0;entryDy=0;entryPerimeter=0;endArrow=none;endFill=0;strokeColor=#000000;fontSize=16;" parent="6vQs2nbCx0rCWX8Hwp_1-1" source="n5IdorZSIMEuO9a2ge6M-16" target="n5IdorZSIMEuO9a2ge6M-77" edge="1">
          <mxGeometry relative="1" as="geometry" />
        </mxCell>
        <mxCell id="n5IdorZSIMEuO9a2ge6M-80" value="evaluates" style="text;html=1;align=center;verticalAlign=middle;resizable=0;points=[];autosize=1;fontSize=16;" parent="6vQs2nbCx0rCWX8Hwp_1-1" vertex="1">
          <mxGeometry x="490" y="986" width="80" height="20" as="geometry" />
        </mxCell>
        <mxCell id="n5IdorZSIMEuO9a2ge6M-81" value="rates" style="text;html=1;align=center;verticalAlign=middle;resizable=0;points=[];autosize=1;fontSize=16;" parent="6vQs2nbCx0rCWX8Hwp_1-1" vertex="1">
          <mxGeometry x="515" y="1246" width="50" height="20" as="geometry" />
        </mxCell>
        <mxCell id="n5IdorZSIMEuO9a2ge6M-82" value="0..N" style="text;html=1;align=center;verticalAlign=middle;resizable=0;points=[];autosize=1;fontSize=16;" parent="6vQs2nbCx0rCWX8Hwp_1-1" vertex="1">
          <mxGeometry x="420" y="1076" width="40" height="20" as="geometry" />
        </mxCell>
        <mxCell id="n5IdorZSIMEuO9a2ge6M-83" value="1..1" style="text;html=1;align=center;verticalAlign=middle;resizable=0;points=[];autosize=1;fontSize=16;" parent="6vQs2nbCx0rCWX8Hwp_1-1" vertex="1">
          <mxGeometry x="720" y="1020" width="40" height="20" as="geometry" />
        </mxCell>
        <mxCell id="n5IdorZSIMEuO9a2ge6M-84" value="0..N" style="text;html=1;align=center;verticalAlign=middle;resizable=0;points=[];autosize=1;fontSize=16;" parent="6vQs2nbCx0rCWX8Hwp_1-1" vertex="1">
          <mxGeometry x="420" y="1156" width="40" height="20" as="geometry" />
        </mxCell>
        <mxCell id="n5IdorZSIMEuO9a2ge6M-85" value="1..1" style="text;html=1;align=center;verticalAlign=middle;resizable=0;points=[];autosize=1;fontSize=16;" parent="6vQs2nbCx0rCWX8Hwp_1-1" vertex="1">
          <mxGeometry x="630" y="1246" width="40" height="20" as="geometry" />
        </mxCell>
        <mxCell id="n5IdorZSIMEuO9a2ge6M-87" value="Report" style="swimlane;fontStyle=1;childLayout=stackLayout;horizontal=1;startSize=26;fillColor=none;horizontalStack=0;resizeParent=1;resizeParentMax=0;resizeLast=0;collapsible=1;marginBottom=0;fontSize=16;" parent="6vQs2nbCx0rCWX8Hwp_1-1" vertex="1">
          <mxGeometry x="1400" y="1215" width="230" height="130" as="geometry" />
        </mxCell>
        <mxCell id="n5IdorZSIMEuO9a2ge6M-88" value="- dateReport: Date" style="text;strokeColor=#9673a6;fillColor=#e1d5e7;align=left;verticalAlign=top;spacingLeft=4;spacingRight=4;overflow=hidden;rotatable=0;points=[[0,0.5],[1,0.5]];portConstraint=eastwest;" parent="n5IdorZSIMEuO9a2ge6M-87" vertex="1">
          <mxGeometry y="26" width="230" height="26" as="geometry" />
        </mxCell>
        <mxCell id="n5IdorZSIMEuO9a2ge6M-89" value="- typeReport: List&lt;String&gt;" style="text;strokeColor=#9673a6;fillColor=#e1d5e7;align=left;verticalAlign=top;spacingLeft=4;spacingRight=4;overflow=hidden;rotatable=0;points=[[0,0.5],[1,0.5]];portConstraint=eastwest;" parent="n5IdorZSIMEuO9a2ge6M-87" vertex="1">
          <mxGeometry y="52" width="230" height="26" as="geometry" />
        </mxCell>
        <mxCell id="n5IdorZSIMEuO9a2ge6M-90" value="-  analizedValues: Map&lt;String, Integer&gt;" style="text;strokeColor=#9673a6;fillColor=#e1d5e7;align=left;verticalAlign=top;spacingLeft=4;spacingRight=4;overflow=hidden;rotatable=0;points=[[0,0.5],[1,0.5]];portConstraint=eastwest;" parent="n5IdorZSIMEuO9a2ge6M-87" vertex="1">
          <mxGeometry y="78" width="230" height="26" as="geometry" />
        </mxCell>
        <mxCell id="n5IdorZSIMEuO9a2ge6M-91" value="- details: Text" style="text;strokeColor=#9673a6;fillColor=#e1d5e7;align=left;verticalAlign=top;spacingLeft=4;spacingRight=4;overflow=hidden;rotatable=0;points=[[0,0.5],[1,0.5]];portConstraint=eastwest;" parent="n5IdorZSIMEuO9a2ge6M-87" vertex="1">
          <mxGeometry y="104" width="230" height="26" as="geometry" />
        </mxCell>
        <mxCell id="n5IdorZSIMEuO9a2ge6M-92" style="edgeStyle=orthogonalEdgeStyle;rounded=0;orthogonalLoop=1;jettySize=auto;html=1;exitX=1;exitY=0.5;exitDx=0;exitDy=0;entryX=0;entryY=0.5;entryDx=0;entryDy=0;endArrow=none;endFill=0;strokeColor=#000000;fontSize=16;" parent="6vQs2nbCx0rCWX8Hwp_1-1" source="n5IdorZSIMEuO9a2ge6M-16" target="n5IdorZSIMEuO9a2ge6M-89" edge="1">
          <mxGeometry relative="1" as="geometry">
            <Array as="points">
              <mxPoint x="890" y="1280" />
            </Array>
          </mxGeometry>
        </mxCell>
        <mxCell id="n5IdorZSIMEuO9a2ge6M-93" value="associated" style="text;html=1;align=center;verticalAlign=middle;resizable=0;points=[];autosize=1;fontSize=16;" parent="6vQs2nbCx0rCWX8Hwp_1-1" vertex="1">
          <mxGeometry x="1520" y="1100" width="90" height="20" as="geometry" />
        </mxCell>
        <mxCell id="n5IdorZSIMEuO9a2ge6M-94" value="writes" style="text;html=1;align=center;verticalAlign=middle;resizable=0;points=[];autosize=1;fontSize=16;" parent="6vQs2nbCx0rCWX8Hwp_1-1" vertex="1">
          <mxGeometry x="1080" y="1256" width="60" height="20" as="geometry" />
        </mxCell>
        <mxCell id="n5IdorZSIMEuO9a2ge6M-95" value="0..N" style="text;html=1;align=center;verticalAlign=middle;resizable=0;points=[];autosize=1;fontSize=16;" parent="6vQs2nbCx0rCWX8Hwp_1-1" vertex="1">
          <mxGeometry x="890" y="1256" width="40" height="20" as="geometry" />
        </mxCell>
        <mxCell id="n5IdorZSIMEuO9a2ge6M-96" value="1..1" style="text;html=1;align=center;verticalAlign=middle;resizable=0;points=[];autosize=1;fontSize=16;" parent="6vQs2nbCx0rCWX8Hwp_1-1" vertex="1">
          <mxGeometry x="1330" y="1256" width="40" height="20" as="geometry" />
        </mxCell>
        <mxCell id="n5IdorZSIMEuO9a2ge6M-97" value="0..N" style="text;html=1;align=center;verticalAlign=middle;resizable=0;points=[];autosize=1;fontSize=16;" parent="6vQs2nbCx0rCWX8Hwp_1-1" vertex="1">
          <mxGeometry x="1520" y="1049" width="40" height="20" as="geometry" />
        </mxCell>
        <mxCell id="n5IdorZSIMEuO9a2ge6M-98" value="1..1" style="text;html=1;align=center;verticalAlign=middle;resizable=0;points=[];autosize=1;fontSize=16;" parent="6vQs2nbCx0rCWX8Hwp_1-1" vertex="1">
          <mxGeometry x="1520" y="1176" width="40" height="20" as="geometry" />
        </mxCell>
        <mxCell id="ty6UT1eiiTCrDuPl_hDT-2" value="" style="rounded=0;whiteSpace=wrap;html=1;fillColor=#dae8fc;strokeColor=#6c8ebf;" parent="6vQs2nbCx0rCWX8Hwp_1-1" vertex="1">
          <mxGeometry x="960" y="351" width="20" height="20" as="geometry" />
        </mxCell>
        <mxCell id="ty6UT1eiiTCrDuPl_hDT-3" value="Neo4j" style="text;html=1;align=center;verticalAlign=middle;resizable=0;points=[];autosize=1;" parent="6vQs2nbCx0rCWX8Hwp_1-1" vertex="1">
          <mxGeometry x="995" y="351" width="50" height="20" as="geometry" />
        </mxCell>
        <mxCell id="ty6UT1eiiTCrDuPl_hDT-4" value="" style="rounded=0;whiteSpace=wrap;html=1;fillColor=#e1d5e7;strokeColor=#9673a6;" parent="6vQs2nbCx0rCWX8Hwp_1-1" vertex="1">
          <mxGeometry x="960" y="391" width="20" height="20" as="geometry" />
        </mxCell>
        <mxCell id="ty6UT1eiiTCrDuPl_hDT-5" value="MongoDB" style="text;html=1;align=center;verticalAlign=middle;resizable=0;points=[];autosize=1;" parent="6vQs2nbCx0rCWX8Hwp_1-1" vertex="1">
          <mxGeometry x="985" y="391" width="70" height="20" as="geometry" />
        </mxCell>
        <mxCell id="ty6UT1eiiTCrDuPl_hDT-6" value="" style="rounded=0;whiteSpace=wrap;html=1;fillColor=#ffe6cc;strokeColor=#d79b00;" parent="6vQs2nbCx0rCWX8Hwp_1-1" vertex="1">
          <mxGeometry x="960" y="431" width="20" height="20" as="geometry" />
        </mxCell>
        <mxCell id="ty6UT1eiiTCrDuPl_hDT-7" value="Neo4j + MongoDB" style="text;html=1;align=center;verticalAlign=middle;resizable=0;points=[];autosize=1;" parent="6vQs2nbCx0rCWX8Hwp_1-1" vertex="1">
          <mxGeometry x="1000" y="431" width="110" height="20" as="geometry" />
        </mxCell>
        <mxCell id="jqLCxOOqE6YiyRdXE_m4-5" value="" style="endArrow=none;html=1;exitX=1;exitY=0.5;exitDx=0;exitDy=0;entryX=0;entryY=0.5;entryDx=0;entryDy=0;" edge="1" parent="6vQs2nbCx0rCWX8Hwp_1-1" source="n5IdorZSIMEuO9a2ge6M-33" target="n5IdorZSIMEuO9a2ge6M-39">
          <mxGeometry width="50" height="50" relative="1" as="geometry">
            <mxPoint x="1730" y="760" as="sourcePoint" />
            <mxPoint x="1880" y="860" as="targetPoint" />
          </mxGeometry>
        </mxCell>
        <mxCell id="jqLCxOOqE6YiyRdXE_m4-6" value="" style="endArrow=none;html=1;entryX=0;entryY=0.5;entryDx=0;entryDy=0;exitX=1;exitY=0.5;exitDx=0;exitDy=0;" edge="1" parent="6vQs2nbCx0rCWX8Hwp_1-1" source="n5IdorZSIMEuO9a2ge6M-5" target="n5IdorZSIMEuO9a2ge6M-26">
          <mxGeometry width="50" height="50" relative="1" as="geometry">
            <mxPoint x="1250" y="940" as="sourcePoint" />
            <mxPoint x="1300" y="890" as="targetPoint" />
          </mxGeometry>
        </mxCell>
        <mxCell id="jqLCxOOqE6YiyRdXE_m4-7" value="" style="endArrow=none;html=1;entryX=0.5;entryY=1;entryDx=0;entryDy=0;exitX=0.5;exitY=0;exitDx=0;exitDy=0;" edge="1" parent="6vQs2nbCx0rCWX8Hwp_1-1" source="n5IdorZSIMEuO9a2ge6M-87" target="n5IdorZSIMEuO9a2ge6M-26">
          <mxGeometry width="50" height="50" relative="1" as="geometry">
            <mxPoint x="1580" y="1190" as="sourcePoint" />
            <mxPoint x="1480" y="1090" as="targetPoint" />
          </mxGeometry>
        </mxCell>
      </root>
    </mxGraphModel>
  </diagram>
</mxfile>
